<svg width="64" height="100" viewBox="0 0 64 100" fill="none" xmlns="http://www.w3.org/2000/svg">
<path fill-rule="evenodd" clip-rule="evenodd" d="M32.0001 83.0959C23.7881 83.0959 17.1271 76.5307 17.0639 68.4099H0.00292969C0.0651995 85.8674 14.3652 100 32.0001 100C49.6339 100 63.934 85.8674 63.9962 68.4099H46.9352C46.872 76.5307 40.2111 83.0959 32.0001 83.0959Z" fill="#212529"/>
<path fill-rule="evenodd" clip-rule="evenodd" d="M32 46.5049C23.7497 46.5049 17.061 39.879 17.061 31.705C17.061 23.531 23.7497 16.9042 32 16.9042C40.2493 16.9042 46.9381 23.531 46.9381 31.705C46.9381 39.879 40.2493 46.5049 32 46.5049ZM32 0C14.3269 0 0 14.1944 0 31.705C0 49.2147 14.3269 63.4091 32 63.4091C49.6722 63.4091 64 49.2147 64 31.705C64 14.1944 49.6722 0 32 0Z" fill="#212529"/>
</svg>
